<svg width="80" height="40" viewBox="0 0 80 40" xmlns="http://www.w3.org/2000/svg"><path d="M20.53 30.34a2.001 2.001 0 0 1-1.48.66h-2.29a2 2 0 0 1-2-2v-3l-1.7 3.81A2 2 0 0 1 11.24 31H8.59a2 2 0 0 1-1.82-2.83l3.3-7.19a7.88 7.88 0 0 1-1.45-1.72 8.96 8.96 0 0 1-1.17-4.81c0-1.35.2-2.57.63-3.65A7.83 7.83 0 0 1 9.88 8a7.5 7.5 0 0 1 2.68-1.7 8.82 8.82 0 0 1 3.07-.54h3.42a2 2 0 0 1 2 2v4.52a2 2 0 0 1 .97-.25h2.32a2 2 0 0 1 1.72.98 2 2 0 0 1 1.72-.98h2.29a2 2 0 0 1 1.88 1.33 2 2 0 0 1 1.89-1.33h6.95a2 2 0 0 1 2 2V15a6.461 6.461 0 0 1 1.88-2.17 5.85 5.85 0 0 1 5.78-.44c.77.37 1.42.94 1.94 1.66v-.02a2 2 0 0 1 2-2h2.32a2 2 0 0 1 1.8 1.12 2.02 2.02 0 0 1 1.8-1.12h2.34a2 2 0 0 1 1.86 1.28 6.67 6.67 0 0 1 4.28-1.49 6.82 6.82 0 0 1 3.86 1.1 2 2 0 0 1 .89 1.97l-.33 2.2a2 2 0 0 1-3.3 1.2 3.047 3.047 0 0 0-.67-.43 1.04 1.04 0 0 0-.47-.1c-.09.04-.2.17-.32.39-.33.57-.53 1.66-.53 3.25 0 1.63.18 2.82.5 3.55.14.32.15.33.26.33.3 0 .52-.04.66-.1.25-.12.44-.24.56-.34a2 2 0 0 1 3.21.92l.54 1.73a2 2 0 0 1-.62 2.11 6.56 6.56 0 0 1-4.41 1.6 6.5 6.5 0 0 1-3.76-1.1 1.98 1.98 0 0 1-1.68.9h-2.52a1.999 1.999 0 0 1-1.77-1.06l-.24-.46A2 2 0 0 1 56.71 31h-2.32a2 2 0 0 1-1.73-1 7.848 7.848 0 0 1-1.58.77c-.84.3-1.74.44-2.72.44-1.71 0-3.2-.56-4.38-1.64v2.37a2 2 0 0 1-2 2H39.9a2 2 0 0 1-2-2V31h-2.42v.94a2 2 0 0 1-2 2H31.4a2 2 0 0 1-2-2V31h-1.62a2 2 0 0 1-1.72-.98 2 2 0 0 1-1.72.98h-2.32a2 2 0 0 1-1.49-.66zm40.95-8.76v-.06c0-.36 0-.7.03-1.04l-.31.58.28.52zm-9.09 2.43a2.008 2.008 0 0 1-.37.04h-4.08c.08.39.18.7.3.92.12.23.15.25.33.25.38 0 .68-.06.92-.17.38-.17.67-.33.84-.45a2 2 0 0 1 2.06-.19v-.4z" fill="#fff"/><path d="M41.98 31.94H39.9V29h-6.42v2.94H31.4V27.1h.92c.34-.8.6-1.67.8-2.63.2-.96.36-1.95.47-2.97.1-1.02.17-2.06.2-3.12s.05-2.08.05-3.07v-1.28h6.95V27.1h1.19v4.84zm10.06-3.95c-.49.388-1.04.692-1.63.9a6.1 6.1 0 0 1-2.05.32 4.3 4.3 0 0 1-3.65-1.8c-.9-1.2-1.34-2.95-1.34-5.27 0-1.2.09-2.32.26-3.33.16-1 .43-1.88.8-2.63.36-.74.83-1.32 1.4-1.73a3.85 3.85 0 0 1 3.74-.25c.52.24.96.64 1.32 1.2.35.55.63 1.27.83 2.15.2.88.3 1.96.3 3.22v1.28h-6.24c0 1.7.23 2.99.7 3.86.46.87 1.16 1.3 2.09 1.3.65 0 1.23-.1 1.74-.33.5-.23.9-.45 1.2-.67l.53 1.78zM30.07 14.03V29h-2.29v-6.71h-3.44V29h-2.32V14.03h2.32v6.36h3.44v-6.36h2.29zm26.64 7.52V29h-2.32V14.03h2.32v6.92l3.6-6.92h2.34l-3.71 7.04L63.18 29h-2.52l-3.95-7.46v.01zm11.9 7.66c-1.6 0-2.85-.64-3.76-1.92-.92-1.27-1.37-3.2-1.37-5.77 0-1.17.11-2.23.34-3.18.23-.95.56-1.76 1.01-2.42.45-.67 1-1.18 1.66-1.55a4.67 4.67 0 0 1 2.3-.55c.68 0 1.22.08 1.64.23.397.139.776.323 1.13.55l-.33 2.2a5.04 5.04 0 0 0-1.11-.73 3.04 3.04 0 0 0-1.35-.32c-.84 0-1.52.47-2.05 1.4-.54.93-.8 2.35-.8 4.25 0 1.88.22 3.33.66 4.35.45 1.02 1.15 1.53 2.1 1.53.57 0 1.07-.1 1.48-.29.42-.18.76-.4 1.04-.63l.54 1.72c-.402.34-.854.618-1.34.82-.5.2-1.09.3-1.78.3l-.01.01zm-30.1-13.3h-2.6v.26c0 .8 0 1.66-.04 2.6-.04.94-.1 1.9-.19 2.86-.1.97-.24 1.93-.41 2.87a14.01 14.01 0 0 1-.75 2.6h3.98V15.9l.01.01zm9.38-.19c-.72 0-1.22.4-1.52 1.2-.3.8-.48 1.88-.56 3.23h3.83c0-.63-.03-1.22-.09-1.77a7.092 7.092 0 0 0-.28-1.4c-.13-.4-.3-.71-.54-.93a1.18 1.18 0 0 0-.84-.33z" fill="#000"/><path d="M14.86 20.86L11.24 29H8.59l3.98-8.7a5.66 5.66 0 0 1-2.25-2.1 7.05 7.05 0 0 1-.87-3.75c0-1.11.17-2.09.5-2.93.32-.84.77-1.54 1.33-2.1a5.5 5.5 0 0 1 1.98-1.24 6.82 6.82 0 0 1 2.37-.42h3.42V29h-2.29v-8.14h-1.9zm1.9-11.17h-1.22c-.45 0-.9.09-1.33.26a3.06 3.06 0 0 0-1.16.8c-.34.37-.61.85-.82 1.45-.2.6-.31 1.36-.31 2.25 0 .85.1 1.56.28 2.13.2.58.45 1.05.78 1.4.32.36.7.61 1.15.76.45.15.92.22 1.41.22h1.22V9.69z" fill="red"/></svg>